<svg width="146" height="26" viewBox="0 0 146 26" fill="none" xmlns="http://www.w3.org/2000/svg">
<path d="M0.585625 1.232V0.271999H20.4576V1.232H0.585625ZM0.585625 3.344V2.384H20.4576V3.344H0.585625ZM0.585625 5.456V4.496H20.4576V5.456H0.585625ZM12.1696 26V6.48H13.1296V26H12.1696ZM7.94563 26V6.48H8.90563V26H7.94563ZM10.0576 26V6.48H11.0176V26H10.0576ZM26.5896 26V0.271999H27.5496V26H26.5896ZM22.3656 26V0.271999H23.3256V26H22.3656ZM24.4776 26V0.271999H25.4376V26H24.4776ZM43.1976 26V0.271999H44.1576V26H43.1976ZM38.9736 26V0.271999H39.9336V26H38.9736ZM41.0856 26V0.271999H42.0456V26H41.0856ZM28.7016 11.504V10.544H37.8216V11.504H28.7016ZM28.7016 13.616V12.656H37.8216V13.616H28.7016ZM28.7016 15.728V14.768H37.8216V15.728H28.7016ZM51.5896 26V0.271999H52.5496V26H51.5896ZM47.3656 26V0.271999H48.3256V26H47.3656ZM49.4776 26V0.271999H50.4376V26H49.4776ZM53.7016 15.248V14.288H61.2216C62.4376 14.288 63.5363 14.0213 64.5176 13.488C65.5203 12.9547 66.3096 12.1973 66.8856 11.216C67.483 10.2347 67.7816 9.08267 67.7816 7.76C67.7816 6.43733 67.483 5.28533 66.8856 4.304C66.3096 3.32267 65.5203 2.56533 64.5176 2.032C63.5363 1.49867 62.4376 1.232 61.2216 1.232H53.7016V0.271999H61.2216C62.6083 0.271999 63.867 0.591999 64.9976 1.232C66.1496 1.85066 67.0563 2.72533 67.7176 3.856C68.4003 4.96533 68.7416 6.26667 68.7416 7.76C68.7416 9.25333 68.4003 10.5653 67.7176 11.696C67.0563 12.8053 66.1496 13.68 64.9976 14.32C63.867 14.9387 62.6083 15.248 61.2216 15.248H53.7016ZM53.7016 13.136V12.176H61.2216C62.459 12.176 63.5043 11.792 64.3576 11.024C65.2323 10.2347 65.6696 9.14667 65.6696 7.76C65.6696 6.37333 65.2323 5.296 64.3576 4.528C63.5043 3.73867 62.459 3.344 61.2216 3.344H53.7016V2.384H61.2216C62.2243 2.384 63.131 2.608 63.9416 3.056C64.7523 3.48267 65.403 4.10133 65.8936 4.912C66.3843 5.70133 66.6296 6.65067 66.6296 7.76C66.6296 8.86933 66.3843 9.82933 65.8936 10.64C65.403 11.4293 64.7523 12.048 63.9416 12.496C63.131 12.9227 62.2243 13.136 61.2216 13.136H53.7016ZM53.7016 11.024V10.064H61.2216C61.8616 10.064 62.4056 9.88267 62.8536 9.52C63.323 9.136 63.5576 8.54933 63.5576 7.76C63.5576 6.94933 63.323 6.36267 62.8536 6C62.4056 5.63733 61.8616 5.456 61.2216 5.456H53.7016V4.496H61.2216C62.139 4.496 62.9176 4.77333 63.5576 5.328C64.1976 5.88267 64.5176 6.69333 64.5176 7.76C64.5176 8.82667 64.1976 9.63733 63.5576 10.192C62.9176 10.7467 62.139 11.024 61.2216 11.024H53.7016ZM67.4296 26L62.9176 16.112C63.067 16.0907 63.2163 16.0693 63.3656 16.048C63.5363 16.0053 63.6963 15.952 63.8456 15.888L68.4856 26H67.4296ZM65.0936 26L60.6456 16.336C60.8163 16.336 60.987 16.336 61.1576 16.336C61.3496 16.3147 61.531 16.2933 61.7016 16.272L66.1496 26H65.0936ZM62.7576 26L58.3416 16.368H59.3976L63.8136 26H62.7576ZM70.7934 14.096V13.136H78.2174V14.096H70.7934ZM70.7934 16.208V15.248H78.2174V16.208H70.7934ZM74.3774 25.808L76.7774 17.328H77.7694L75.3694 25.808H74.3774ZM72.2014 25.808L74.6014 17.328H75.5934L73.1934 25.808H72.2014ZM84.9646 26V0.271999H85.9246V26H84.9646ZM80.7406 26V0.271999H81.7006V26H80.7406ZM82.8526 26V0.271999H83.8126V26H82.8526ZM87.0766 1.232V0.271999H99.8446V1.232H87.0766ZM87.0766 3.344V2.384H99.8446V3.344H87.0766ZM87.0766 5.456V4.496H99.8446V5.456H87.0766ZM87.0766 11.504V10.544H98.0206V11.504H87.0766ZM87.0766 13.616V12.656H98.0206V13.616H87.0766ZM87.0766 15.728V14.768H98.0206V15.728H87.0766ZM101.117 1.232V0.271999H120.989V1.232H101.117ZM101.117 3.344V2.384H120.989V3.344H101.117ZM101.117 5.456V4.496H120.989V5.456H101.117ZM112.701 26V6.48H113.661V26H112.701ZM108.477 26V6.48H109.437V26H108.477ZM110.589 26V6.48H111.549V26H110.589ZM135.413 13.872L126.549 0.271999H127.701L136.597 13.872H135.413ZM130.357 13.872L121.493 0.271999H122.645L131.509 13.872H130.357ZM132.917 13.872L124.021 0.271999H125.173L134.037 13.872H132.917ZM134.709 8.848L134.101 7.952L139.221 0.271999H140.373L134.709 8.848ZM135.989 10.832L135.413 9.904L141.749 0.271999H142.901L135.989 10.832ZM137.269 12.784L136.661 11.888L144.277 0.271999H145.429L137.269 12.784ZM135.093 26V15.056H136.053V26H135.093ZM130.869 26V15.056H131.829V26H130.869ZM132.981 26V15.056H133.941V26H132.981Z" fill="#D50000"/>
</svg>
